<svg width="24" height="24" viewBox="0 0 24 24" fill="none" xmlns="http://www.w3.org/2000/svg">
<g clip-path="url(#clip0_528_918)">
<path d="M5.256 0H18.744C21.6469 0 24 2.35312 24 5.256V18.744C24 21.6469 21.6469 24 18.744 24H5.256C2.35312 24 0 21.6469 0 18.744V5.256C0 2.35312 2.35312 0 5.256 0Z" fill="url(#paint0_linear_528_918)"/>
<path d="M7.69133 17.4202L7.69358 17.421L6.87298 18.8422C6.57345 19.361 5.91008 19.5388 5.39127 19.2393C4.87245 18.9397 4.6947 18.2764 4.99423 17.7575L5.59873 16.7105L5.65677 16.61C5.76036 16.4612 6.01602 16.2041 6.52742 16.2525C6.52742 16.2525 7.73089 16.3831 7.81798 17.0086C7.81798 17.0086 7.8298 17.2144 7.69133 17.4202ZM19.3297 13.7902H16.7709C16.5966 13.7785 16.5206 13.7163 16.4906 13.6801L16.4887 13.6768L13.7496 8.93248L13.7461 8.93482L13.5818 8.69932C13.3126 8.28757 12.8851 9.34057 12.8851 9.34057C12.3746 10.5139 12.9575 11.8479 13.1607 12.2511L16.9653 18.8408C17.2647 19.3595 17.9281 19.5374 18.447 19.2378C18.9657 18.9382 19.1435 18.2749 18.8439 17.756L17.8926 16.1083C17.8742 16.0684 17.8421 15.96 18.0372 15.9595H19.3297C19.9288 15.9595 20.4144 15.4739 20.4144 14.8748C20.4144 14.2758 19.9288 13.7902 19.3297 13.7902ZM14.3597 15.2646C14.3597 15.2646 14.4963 15.9594 13.9678 15.9594H4.50852C3.90945 15.9594 3.42383 15.4738 3.42383 14.8747C3.42383 14.2757 3.90945 13.79 4.50852 13.79H6.94039C7.33302 13.7674 7.42602 13.5407 7.42602 13.5407L7.42827 13.5418L10.6026 8.04354L10.6017 8.04335C10.6595 7.93713 10.6114 7.83673 10.603 7.82088L9.55461 6.00504C9.25508 5.48632 9.43283 4.82285 9.95164 4.52342C10.4705 4.22398 11.1338 4.40154 11.4334 4.92035L11.9195 5.76251L12.4049 4.92185C12.7044 4.40313 13.3678 4.22529 13.8866 4.52492C14.4054 4.82454 14.5832 5.48773 14.2836 6.00654L9.86633 13.6575C9.84702 13.7041 9.84111 13.7772 9.98483 13.79H12.6252L12.6258 13.8158C12.6258 13.8158 14.1518 13.8395 14.3597 15.2646Z" fill="white"/>
</g>
<defs>
<linearGradient id="paint0_linear_528_918" x1="1200" y1="0" x2="1200" y2="2400" gradientUnits="userSpaceOnUse">
<stop stop-color="#17C9FB"/>
<stop offset="1" stop-color="#1A74E8"/>
</linearGradient>
<clipPath id="clip0_528_918">
<rect width="24" height="24" fill="white"/>
</clipPath>
</defs>
</svg>
