<svg width="40" height="40" viewBox="0 0 40 40" fill="none" xmlns="http://www.w3.org/2000/svg">
<g clip-path="url(#clip0_526_865)">
<path d="M33.4265 34.9991C31.7666 37.479 30.0067 39.8988 27.3269 39.9388C24.6471 39.9988 23.7872 38.3589 20.7474 38.3589C17.6876 38.3589 16.7476 39.8988 14.2078 39.9988C11.588 40.0988 9.6081 37.359 7.92821 34.9391C4.50843 29.9995 1.88861 20.9001 5.40837 14.7805C7.14826 11.7407 10.2681 9.82081 13.6478 9.76082C16.2077 9.72082 18.6475 11.5007 20.2274 11.5007C21.7873 11.5007 24.7471 9.36084 27.8469 9.68082C29.1468 9.74082 32.7866 10.2008 35.1264 13.6406C34.9464 13.7605 30.7867 16.2004 30.8267 21.2601C30.8867 27.2997 36.1263 29.3195 36.1863 29.3395C36.1263 29.4795 35.3464 32.2193 33.4265 34.9991ZM22.0073 3.00127C23.4672 1.34138 25.887 0.0814595 27.8869 0.00146484C28.1469 2.34131 27.2069 4.70115 25.807 6.38104C24.4271 8.08093 22.1473 9.40084 19.9074 9.22085C19.6074 6.92101 20.7274 4.52116 22.0073 3.00127Z" fill="white"/>
</g>
<defs>
<clipPath id="clip0_526_865">
<rect width="40" height="40" fill="white"/>
</clipPath>
</defs>
</svg>
