<svg width="24" height="24" viewBox="0 0 24 24" fill="none" xmlns="http://www.w3.org/2000/svg">
<path d="M16.499 2.25V3.75H19.1712L16.64 6.3045C15.7353 5.62123 14.6327 5.25108 13.499 5.25C12.0965 5.25 10.787 5.805 9.79548 6.79725C9.30539 7.28144 8.91629 7.8581 8.65075 8.4938C8.38521 9.1295 8.24851 9.8116 8.24858 10.5005C8.24865 11.1895 8.38548 11.8715 8.65115 12.5072C8.91682 13.1428 9.30604 13.7194 9.79623 14.2035C10.4487 14.856 11.2257 15.3247 12.0927 15.5625C12.1782 15.4972 12.2742 15.429 12.3507 15.3525C12.6651 15.0328 12.891 14.6368 13.0062 14.2035C12.1896 14.103 11.4303 13.7315 10.85 13.1483C10.142 12.441 9.74898 11.502 9.74898 10.5C9.74898 9.498 10.1427 8.5605 10.8515 7.8525C11.558 7.14225 12.497 6.75 13.499 6.75C14.501 6.75 15.4392 7.14375 16.1465 7.8525C16.4963 8.19889 16.7739 8.61127 16.9631 9.06573C17.1524 9.5202 17.2495 10.0077 17.249 10.5C17.249 11.1488 17.0652 11.7525 16.757 12.3045C16.829 12.6915 16.874 13.098 16.874 13.5C16.874 13.8745 16.8427 14.242 16.7802 14.6025C16.9302 14.4802 17.0637 14.3415 17.2025 14.2035C18.194 13.2105 18.749 11.9025 18.749 10.5C18.749 9.3525 18.371 8.262 17.6945 7.359L20.249 4.8285V7.5H21.749V2.25H16.499ZM11.9052 8.4375C11.8197 8.50275 11.7237 8.571 11.6472 8.6475C11.3232 8.973 11.1117 9.3675 10.9917 9.79725C11.8092 9.90225 12.5555 10.2592 13.148 10.8517C13.8567 11.559 14.2505 12.498 14.2505 13.4993C14.2505 14.5005 13.8567 15.4387 13.148 16.1467C12.44 16.8577 11.501 17.25 10.499 17.25C9.49698 17.25 8.55873 16.8563 7.85148 16.1475C7.50134 15.8014 7.22354 15.389 7.03427 14.9345C6.84499 14.48 6.74801 13.9924 6.74898 13.5C6.74898 12.8512 6.93273 12.2475 7.24098 11.6955C7.16653 11.3013 7.12738 10.9012 7.12398 10.5C7.12398 10.126 7.15523 9.7585 7.21773 9.3975C7.06773 9.51975 6.93498 9.6585 6.79548 9.79725C5.80548 10.788 5.24898 12.0975 5.24898 13.5C5.24898 14.6475 5.62698 15.738 6.30348 16.641L5.03898 17.9062L3.53898 16.4062L2.45898 17.4608L3.95898 18.9608L2.45898 20.4608L3.53898 21.5408L5.03898 20.0408L6.53898 21.5408L7.59273 20.4608L6.09273 18.9608L7.35873 17.6962C8.26255 18.3806 9.36533 18.7506 10.499 18.75C11.9015 18.75 13.211 18.195 14.2025 17.2028C15.194 16.212 15.749 14.9025 15.749 13.5C15.749 12.0975 15.194 10.7895 14.2017 9.7965C13.5492 9.144 12.7722 8.67525 11.9052 8.4375Z" fill="#AAB8C2"/>
</svg>
