<svg width="22" height="24" viewBox="0 0 22 24" fill="none" xmlns="http://www.w3.org/2000/svg">
<g clip-path="url(#clip0_528_961)">
<path d="M10.1397 11.4414L0.0908203 21.9696C0.203668 22.3695 0.406459 22.7383 0.683692 23.0479C0.960925 23.3574 1.30526 23.5995 1.69037 23.7555C2.07549 23.9116 2.49118 23.9775 2.90569 23.9483C3.32019 23.9191 3.72253 23.7955 4.08194 23.5869L15.3888 17.1473L10.1397 11.4414Z" fill="#EA4335"/>
<path d="M20.3004 9.65218L15.4109 6.85156L9.90723 11.6812L15.4333 17.1326L20.2856 14.362C20.7154 14.1369 21.0755 13.7984 21.3267 13.3833C21.5779 12.9682 21.7107 12.4922 21.7107 12.007C21.7107 11.5218 21.5779 11.0459 21.3267 10.6307C21.0755 10.2156 20.7154 9.87718 20.2856 9.6521L20.3004 9.65218Z" fill="#FBBC04"/>
<path d="M0.0899202 1.9917C0.0292158 2.21626 -0.00101976 2.44796 2.62359e-05 2.68058V21.2807C0.000625649 21.5133 0.0308333 21.7448 0.0899202 21.9697L10.4833 11.7111L0.0899202 1.9917Z" fill="#4285F4"/>
<path d="M10.2146 11.9808L15.4113 6.85154L4.11943 0.381885C3.69458 0.133083 3.21137 0.00131666 2.71903 5.20116e-06C1.49724 -0.00236936 0.423089 0.808542 0.0908203 1.98437L10.2146 11.9808Z" fill="#34A853"/>
</g>
<defs>
<clipPath id="clip0_528_961">
<rect width="21.7102" height="24" fill="white"/>
</clipPath>
</defs>
</svg>
